<svg width="512" height="512" viewBox="0 0 512 512" fill="none" xmlns="http://www.w3.org/2000/svg">
<path fill-rule="evenodd" clip-rule="evenodd" d="M35 126.709C12.7535 164.654 0 208.837 0 256C0 303.163 12.7535 347.346 35 385.291V126.709ZM174.508 13.2438L366.202 322.797V24.8679C332.825 8.92566 295.455 0 256 0C227.509 0 200.105 4.65421 174.508 13.2438ZM476 125.018V386.982C498.864 348.661 512 303.865 512 256C512 208.135 498.864 163.339 476 125.018ZM347.558 495.141L144.798 164.258V486.652C178.428 502.895 216.15 512 256 512C288.261 512 319.128 506.033 347.558 495.141Z" fill="#5565E9"/>
</svg>
